# xmcd CD database file
#
# Track frame offsets:
#	150
#	29432
#	60850
#	90142
#	115357
#	142690
#	166822
#	192927
#	213552
#
# Disc length: 3201 seconds
#
# Revision: 0
# Processed by: cddbd v1.5.2PL0 Copyright (c) Steve Scherf et al.
# Submitted via: CDex 1.70beta2
#
DISCID=6a0c7f09
DTITLE=Ray Brown Trio - Georgia On My Mind
DYEAR=1991
DGENRE=Jazz
TTITLE0=Sweet Georgia Brown
TTITLE1=My Romance
TTITLE2=Georgia On My Mind
TTITLE3=Caravan
TTITLE4=All Blues
TTITLE5=My Romance
TTITLE6=You Are My Sunshine
TTITLE7=When I Fall In Love
TTITLE8=Flying Home
EXTD=YEAR: 1991
EXTT0=
EXTT1=
EXTT2=
EXTT3=
EXTT4=
EXTT5=
EXTT6=
EXTT7=
EXTT8=
PLAYORDER=
